<svg width="32" height="32" viewBox="0 0 32 32" fill="none" xmlns="http://www.w3.org/2000/svg">
<g clip-path="url(#clip0_175_2928)">
<path d="M0 16C0 20.2435 1.68571 24.3131 4.68629 27.3137C7.68687 30.3143 11.7565 32 16 32C20.2435 32 24.3131 30.3143 27.3137 27.3137C30.3143 24.3131 32 20.2435 32 16C32 11.7565 30.3143 7.68687 27.3137 4.68629C24.3131 1.68571 20.2435 0 16 0C11.7565 0 7.68687 1.68571 4.68629 4.68629C1.68571 7.68687 0 11.7565 0 16Z" fill="#3066BB"/>
<path d="M12.7612 22.2219H9.99661V13.3167H12.7612V22.2219ZM11.3806 12.0985C11.17 12.0983 10.9616 12.0567 10.7671 11.976C10.5726 11.8952 10.3959 11.777 10.2471 11.628C10.0984 11.479 9.98038 11.3022 9.89994 11.1076C9.8195 10.913 9.77817 10.7045 9.77832 10.4939C9.77855 10.1768 9.87281 9.86682 10.0492 9.60326C10.2256 9.33971 10.4761 9.13437 10.7692 9.01322C11.0623 8.89207 11.3847 8.86054 11.6957 8.92264C12.0067 8.98473 12.2923 9.13764 12.5164 9.36204C12.7404 9.58645 12.8929 9.87226 12.9546 10.1833C13.0162 10.4944 12.9843 10.8168 12.8627 11.1097C12.7411 11.4026 12.5354 11.6529 12.2716 11.8289C12.0078 12.0049 11.6977 12.0987 11.3806 12.0985ZM23.1109 22.2219H20.3486V17.8905C20.3486 16.8573 20.3303 15.5305 18.912 15.5305C17.4755 15.5305 17.2537 16.6539 17.2537 17.8162V22.2219H14.4937V13.3167H17.1452V14.5339H17.1817C17.5497 13.8345 18.4503 13.0939 19.7966 13.0939C22.5966 13.0939 23.1109 14.9396 23.1109 17.3373V22.2219Z" fill="white"/>
</g>
<defs>
<clipPath id="clip0_175_2928">
<rect width="32" height="32" fill="white"/>
</clipPath>
</defs>
</svg>
