<svg width="16" height="16" viewBox="0 0 16 16" fill="none" xmlns="http://www.w3.org/2000/svg">
<path d="M2.66674 9.33328C2.54059 9.33371 2.4169 9.29833 2.31005 9.23126C2.20319 9.1642 2.11757 9.06818 2.06311 8.95438C2.00865 8.84059 1.9876 8.71367 2.00241 8.58838C2.01721 8.4631 2.06726 8.34459 2.14674 8.24661L8.74674 1.44661C8.79625 1.38947 8.86372 1.35085 8.93806 1.3371C9.01241 1.32335 9.08923 1.33529 9.1559 1.37095C9.22257 1.40661 9.27513 1.46388 9.30497 1.53335C9.3348 1.60283 9.34013 1.68038 9.32008 1.75328L8.04008 5.76661C8.00233 5.86763 7.98966 5.97629 8.00314 6.08328C8.01662 6.19028 8.05585 6.2924 8.11747 6.3809C8.17909 6.46939 8.26126 6.54162 8.35693 6.59139C8.45259 6.64115 8.55891 6.66696 8.66674 6.66661H13.3334C13.4596 6.66618 13.5833 6.70156 13.6901 6.76863C13.797 6.8357 13.8826 6.93171 13.937 7.04551C13.9915 7.15931 14.0125 7.28622 13.9977 7.41151C13.9829 7.53679 13.9329 7.65531 13.8534 7.75328L7.25341 14.5533C7.2039 14.6104 7.13644 14.649 7.06209 14.6628C6.98774 14.6765 6.91093 14.6646 6.84426 14.6289C6.77759 14.5933 6.72502 14.536 6.69519 14.4665C6.66535 14.3971 6.66002 14.3195 6.68008 14.2466L7.96008 10.2333C7.99782 10.1323 8.0105 10.0236 7.99702 9.91661C7.98354 9.80962 7.9443 9.70749 7.88268 9.619C7.82106 9.5305 7.73889 9.45827 7.64323 9.40851C7.54756 9.35874 7.44125 9.33293 7.33341 9.33328H2.66674Z" stroke="#FFD230" stroke-width="1.33333" stroke-linecap="round" stroke-linejoin="round"/>
</svg>
