<svg width="20" height="20" viewBox="0 0 20 20" fill="none" xmlns="http://www.w3.org/2000/svg">
<path d="M13.565 1.6665C14.5283 1.6665 15.3092 2.439 15.3092 3.3915V13.809C15.3159 13.9686 15.3842 14.1194 15.4999 14.2296C15.6155 14.3398 15.7694 14.4008 15.9292 14.3998C16.0888 14.4006 16.2425 14.3395 16.3579 14.2293C16.4734 14.1191 16.5416 13.9685 16.5483 13.809V7.58234C16.5495 7.3569 16.5951 7.13391 16.6825 6.92609C16.7699 6.71828 16.8973 6.52971 17.0576 6.37115C17.2179 6.21259 17.4078 6.08715 17.6165 6.002C17.8253 5.91684 18.0487 5.87363 18.2742 5.87484C18.4997 5.87363 18.7232 5.91687 18.932 6.00208C19.1408 6.08729 19.3307 6.2128 19.491 6.37144C19.6513 6.53009 19.7787 6.71876 19.8661 6.92667C19.9534 7.13458 19.9989 7.35766 20 7.58317V13.0507C19.9991 13.194 19.9414 13.3311 19.8395 13.4318C19.7377 13.5326 19.6 13.5888 19.4567 13.5882C19.3856 13.5886 19.3152 13.5751 19.2494 13.5483C19.1837 13.5215 19.1238 13.482 19.0733 13.4321C19.0227 13.3822 18.9825 13.3228 18.9549 13.2574C18.9274 13.1919 18.9129 13.1217 18.9125 13.0507V7.58317C18.9121 7.49978 18.8952 7.41729 18.8629 7.34042C18.8306 7.26354 18.7834 7.19379 18.7242 7.13513C18.6649 7.07648 18.5946 7.03007 18.5174 6.99856C18.4402 6.96706 18.3576 6.95107 18.2742 6.9515C18.1908 6.95107 18.1081 6.96706 18.0309 6.99856C17.9537 7.03007 17.8834 7.07648 17.8242 7.13513C17.7649 7.19379 17.7178 7.26354 17.6854 7.34042C17.6531 7.41729 17.6363 7.49978 17.6358 7.58317V13.8098C17.6346 14.0328 17.5895 14.2533 17.5031 14.4587C17.4167 14.6642 17.2907 14.8507 17.1322 15.0075C16.9737 15.1643 16.7859 15.2883 16.5795 15.3725C16.3731 15.4567 16.1521 15.4994 15.9292 15.4982C15.7062 15.4994 15.4853 15.4567 15.2789 15.3725C15.0724 15.2883 14.8846 15.1643 14.7262 15.0075C14.5677 14.8507 14.4416 14.6642 14.3552 14.4587C14.2688 14.2533 14.2237 14.0328 14.2225 13.8098V3.39317C14.2156 3.2239 14.1433 3.06392 14.0208 2.94688C13.8983 2.82984 13.7352 2.76488 13.5658 2.76567C13.3964 2.76466 13.2332 2.82941 13.1106 2.94629C12.988 3.06317 12.9155 3.22307 12.9083 3.39234L12.9075 16.6457C12.9049 17.0957 12.7236 17.5263 12.4035 17.8428C12.0835 18.1592 11.6509 18.3356 11.2008 18.3332C10.9779 18.3344 10.7569 18.2917 10.5505 18.2075C10.3441 18.1233 10.1563 17.9993 9.99783 17.8425C9.83935 17.6857 9.7133 17.4992 9.62688 17.2937C9.54046 17.0883 9.49537 16.8678 9.49417 16.6448V15.0332C9.49417 14.7365 9.7375 14.4957 10.0375 14.4957C10.3375 14.4957 10.5808 14.7365 10.5808 15.0332V16.6448C10.5808 16.864 10.6992 17.0665 10.8908 17.1765C11.0825 17.2857 11.3192 17.2857 11.5108 17.1765C11.6049 17.1232 11.6831 17.0459 11.7376 16.9525C11.792 16.8591 11.8208 16.7529 11.8208 16.6448V3.3915C11.8208 2.439 12.6017 1.6665 13.565 1.6665ZM8.83667 1.6665C9.8 1.6665 10.5808 2.439 10.5808 3.3915V12.994C10.5805 13.065 10.5662 13.1352 10.5387 13.2007C10.5112 13.2661 10.4711 13.3255 10.4206 13.3754C10.3701 13.4253 10.3103 13.4648 10.2446 13.4916C10.1789 13.5184 10.1085 13.5319 10.0375 13.5315C9.96652 13.5319 9.89614 13.5184 9.8304 13.4916C9.76467 13.4648 9.70485 13.4253 9.65439 13.3754C9.60392 13.3255 9.5638 13.2661 9.53631 13.2007C9.50881 13.1352 9.49449 13.065 9.49417 12.994V3.3915C9.49306 3.21815 9.4232 3.05233 9.29992 2.93045C9.17664 2.80858 9.01002 2.74062 8.83667 2.7415C8.66331 2.74062 8.4967 2.80858 8.37341 2.93045C8.25013 3.05233 8.18027 3.21815 8.17917 3.3915V15.069C8.17652 15.524 7.99335 15.9593 7.66989 16.2794C7.34644 16.5994 6.90917 16.7779 6.45417 16.7757C5.99902 16.7781 5.56153 16.5997 5.2379 16.2797C4.91427 15.9596 4.73098 15.5241 4.72833 15.069V7.58317C4.7279 7.49978 4.71104 7.41729 4.67872 7.34042C4.64641 7.26354 4.59927 7.19379 4.53999 7.13513C4.48072 7.07648 4.41047 7.03007 4.33326 6.99856C4.25605 6.96706 4.17339 6.95107 4.09 6.9515C4.00661 6.95107 3.92395 6.96706 3.84674 6.99856C3.76953 7.03007 3.69928 7.07648 3.64001 7.13513C3.58073 7.19379 3.53359 7.26354 3.50128 7.34042C3.46896 7.41729 3.4521 7.49978 3.45167 7.58317V10.7498C3.45047 10.9753 3.40487 11.1983 3.31749 11.4061C3.23011 11.6139 3.10265 11.8025 2.94239 11.961C2.78213 12.1196 2.59221 12.245 2.38347 12.3302C2.17474 12.4153 1.95127 12.4585 1.72583 12.4573C1.5004 12.4585 1.27693 12.4153 1.06819 12.3302C0.859454 12.245 0.669534 12.1196 0.509275 11.961C0.349016 11.8025 0.221556 11.6139 0.134175 11.4061C0.0467933 11.1983 0.00120057 10.9753 0 10.7498L0 9.6015C0 9.304 0.243333 9.06317 0.543333 9.06317C0.843333 9.06317 1.0875 9.30484 1.0875 9.6015V10.7498C1.0875 11.0982 1.37333 11.3807 1.72583 11.3807C2.07833 11.3807 2.36417 11.0982 2.36417 10.7498V7.58234C2.36681 7.12734 2.54999 6.692 2.87344 6.37198C3.19689 6.05197 3.63416 5.87345 4.08917 5.87567C4.54431 5.87323 4.9818 6.05165 5.30543 6.37169C5.62907 6.69173 5.81236 7.12719 5.815 7.58234V15.069C5.815 15.4182 6.10083 15.7007 6.45417 15.7007C6.80667 15.7007 7.0925 15.4182 7.0925 15.069V3.3915C7.0925 2.439 7.87333 1.6665 8.83667 1.6665Z" fill="url(#paint0_linear_108_694)"/>
<defs>
<linearGradient id="paint0_linear_108_694" x1="0" y1="835.951" x2="2003.64" y2="835.951" gradientUnits="userSpaceOnUse">
<stop stop-color="#E2167E"/>
<stop offset="1" stop-color="#FE603C"/>
</linearGradient>
</defs>
</svg>
